HIERARCHY
ROOT hip
{
  OFFSET 0 0 0
  CHANNELS 6 Xposition Yposition Zposition Zrotation Yrotation Xrotation
  JOINT abdomen
  {
    OFFSET 0 20.6881 -0.73152
    CHANNELS 3 Zrotation Xrotation Yrotation
    JOINT chest
    {
      OFFSET 0 11.7043 -0.48768
      CHANNELS 3 Zrotation Xrotation Yrotation
      JOINT neck
      {
        OFFSET 0 22.1894 -2.19456
        CHANNELS 3 Zrotation Xrotation Yrotation
        JOINT head
        {
          OFFSET -0.24384 7.07133 1.2192
          CHANNELS 3 Zrotation Xrotation Yrotation
          JOINT leftEye
          {
            OFFSET 4.14528 8.04674 8.04672
            CHANNELS 3 Zrotation Xrotation Yrotation
            End Site
            {
              OFFSET 1 0 0
            }
          }
          JOINT rightEye
          {
            OFFSET -3.6576 8.04674 8.04672
            CHANNELS 3 Zrotation Xrotation Yrotation
            End Site
            {
              OFFSET 1 0 0
            }
          }
        }
      }
      JOINT rCollar
      {
        OFFSET -2.68224 19.2634 -4.8768
        CHANNELS 3 Zrotation Xrotation Yrotation
        JOINT rShldr
        {
          OFFSET -8.77824 -1.95073 1.46304
          CHANNELS 3 Zrotation Xrotation Yrotation
          JOINT rForeArm
          {
            OFFSET -28.1742 -1.7115 0.48768
            CHANNELS 3 Zrotation Xrotation Yrotation
            JOINT rHand
            {
              OFFSET -22.5879 0.773209 7.07136
              CHANNELS 3 Zrotation Xrotation Yrotation
              JOINT rThumb1
              {
                OFFSET -1.2192 -0.487915 3.41376
                CHANNELS 3 Zrotation Xrotation Yrotation
                JOINT rThumb2
                {
                  OFFSET -3.37035 -0.52449 3.41376
                  CHANNELS 3 Zrotation Xrotation Yrotation
                  End Site
                  {
                    OFFSET -1.78271 -1.18214 1.43049
                  }
                }
              }
              JOINT rIndex1
              {
                OFFSET -7.75947 0.938293 5.60832
                CHANNELS 3 Zrotation Xrotation Yrotation
                JOINT rIndex2
                {
                  OFFSET -2.54057 -0.884171 1.56538
                  CHANNELS 3 Zrotation Xrotation Yrotation
                  End Site
                  {
                    OFFSET -1.62519 -0.234802 1.16502
                  }
                }
              }
              JOINT rMid1
              {
                OFFSET -8.24714 1.18213 3.41376
                CHANNELS 3 Zrotation Xrotation Yrotation
                JOINT rMid2
                {
                  OFFSET -3.10165 -0.590103 1.0647
                  CHANNELS 3 Zrotation Xrotation Yrotation
                  End Site
                  {
                    OFFSET -2.48547 -0.328903 0.83742
                  }
                }
              }
              JOINT rRing1
              {
                OFFSET -8.82822 0.546677 1.51678
                CHANNELS 3 Zrotation Xrotation Yrotation
                JOINT rRing2
                {
                  OFFSET -2.60934 -0.819778 -0.0198488
                  CHANNELS 3 Zrotation Xrotation Yrotation
                  End Site
                  {
                    OFFSET -2.33842 -0.294052 0.168128
                  }
                }
              }
              JOINT rPinky1
              {
                OFFSET -8.27202 -0.0477905 -0.4584
                CHANNELS 3 Zrotation Xrotation Yrotation
                JOINT rPinky2
                {
                  OFFSET -1.82734 -0.647385 -0.700984
                  CHANNELS 3 Zrotation Xrotation Yrotation
                  End Site
                  {
                    OFFSET -1.69225 -0.51767 -0.607171
                  }
                }
              }
            }
          }
        }
      }
      JOINT lCollar
      {
        OFFSET 2.68224 19.2634 -4.8768
        CHANNELS 3 Zrotation Xrotation Yrotation
        JOINT lShldr
        {
          OFFSET 8.77824 -1.95073 1.46304
          CHANNELS 3 Zrotation Xrotation Yrotation
          JOINT lForeArm
          {
            OFFSET 28.1742 -1.7115 0.48768
            CHANNELS 3 Zrotation Xrotation Yrotation
            JOINT lHand
            {
              OFFSET 22.5879 0.773209 7.07136
              CHANNELS 3 Zrotation Xrotation Yrotation
              JOINT lThumb1
              {
                OFFSET 1.2192 -0.487915 3.41376
                CHANNELS 3 Zrotation Xrotation Yrotation
                JOINT lThumb2
                {
                  OFFSET 3.37035 -0.52449 3.41376
                  CHANNELS 3 Zrotation Xrotation Yrotation
                  End Site
                  {
                    OFFSET 1.78271 -1.18214 1.43049
                  }
                }
              }
              JOINT lIndex1
              {
                OFFSET 7.75947 0.938293 5.60832
                CHANNELS 3 Zrotation Xrotation Yrotation
                JOINT lIndex2
                {
                  OFFSET 2.54057 -0.884171 1.56538
                  CHANNELS 3 Zrotation Xrotation Yrotation
                  End Site
                  {
                    OFFSET 1.62519 -0.234802 1.16502
                  }
                }
              }
              JOINT lMid1
              {
                OFFSET 8.24714 1.18213 3.41376
                CHANNELS 3 Zrotation Xrotation Yrotation
                JOINT lMid2
                {
                  OFFSET 3.10165 -0.590103 1.0647
                  CHANNELS 3 Zrotation Xrotation Yrotation
                  End Site
                  {
                    OFFSET 2.48547 -0.328903 0.83742
                  }
                }
              }
              JOINT lRing1
              {
                OFFSET 8.82822 0.546677 1.51678
                CHANNELS 3 Zrotation Xrotation Yrotation
                JOINT lRing2
                {
                  OFFSET 2.60934 -0.819778 -0.0198488
                  CHANNELS 3 Zrotation Xrotation Yrotation
                  End Site
                  {
                    OFFSET 2.33842 -0.294052 0.168128
                  }
                }
              }
              JOINT lPinky1
              {
                OFFSET 8.27202 -0.0477905 -0.4584
                CHANNELS 3 Zrotation Xrotation Yrotation
                JOINT lPinky2
                {
                  OFFSET 1.82734 -0.647385 -0.700984
                  CHANNELS 3 Zrotation Xrotation Yrotation
                  End Site
                  {
                    OFFSET 1.69225 -0.51767 -0.607171
                  }
                }
              }
            }
          }
        }
      }
    }
  }
  JOINT rButtock
  {
    OFFSET -8.77824 4.35084 1.2192
    CHANNELS 3 Zrotation Xrotation Yrotation
    JOINT rThigh
    {
      OFFSET 0 -1.70687 -2.19456
      CHANNELS 3 Zrotation Xrotation Yrotation
      JOINT rShin
      {
        OFFSET 0 -36.8199 0.73152
        CHANNELS 3 Zrotation Xrotation Yrotation
        JOINT rFoot
        {
          OFFSET 0.73152 -45.1104 -5.12064
          CHANNELS 3 Zrotation Xrotation Yrotation
          End Site
          {
            OFFSET -1.1221 -3.69964 12.103
          }
        }
      }
    }
  }
  JOINT lButtock
  {
    OFFSET 8.77824 4.35084 1.2192
    CHANNELS 3 Zrotation Xrotation Yrotation
    JOINT lThigh
    {
      OFFSET 0 -1.70687 -2.19456
      CHANNELS 3 Zrotation Xrotation Yrotation
      JOINT lShin
      {
        OFFSET 0 -36.8199 0.73152
        CHANNELS 3 Zrotation Xrotation Yrotation
        JOINT lFoot
        {
          OFFSET -0.73152 -45.1104 -5.12064
          CHANNELS 3 Zrotation Xrotation Yrotation
          End Site
          {
            OFFSET 1.1221 -3.69964 12.103
          }
        }
      }
    }
  }
}
MOTION
Frames:	4
Frame Time:	0.03333
0.5267000198364258 67.95240020751953 1.0642999410629272 -8.922700211405754 -29.732498824596405 1.3246000371873379 3.2954401150345802 17.018900513648987 12.36839935183525 -1.2204699777066708 -8.411620035767555 3.338189832866192 -2.960590124130249 13.955600559711456 1.3387200236320496 6.390010267496109 -26.2923002243042 4.25323985517025 0.0 0.0 0.0 0.0 0.0 0.0 0.0 0.0 1.2789769243681803e-12 80.70930004119873 38.30499976873398 -24.469900131225586 -28.434500098228455 -35.50590008497238 76.17609858512878 -0.21016100887209177 12.980999797582626 1.8563000299036503 1.4433254591494915e-09 1.4733814168721437e-09 -4.320384050515713e-09 2.4498802986272494e-09 2.731894710450433e-09 -7.475620122932014e-09 1.4433254591494915e-09 1.4733814168721437e-09 -4.320384050515713e-09 7.7309102565050125 5.474880114197731 0.41731400415301323 1.4433254591494915e-09 1.4733814168721437e-09 -4.320384050515713e-09 2.905540131032467 0.9651830233633518 0.102901995414868 1.4433254591494915e-09 1.4733814168721437e-09 -4.320384050515713e-09 10.27859978377819 0.7318009994924068 0.025912300043273717 1.4433254591494915e-09 1.4733814168721437e-09 -4.320384050515713e-09 2.221670038998127 -0.733487019315362 -0.2089200052432716 0.0 0.0 1.2789769243681803e-12 -72.7936989068985 36.66979908943176 1.1989600025117397 25.478000342845917 -22.161400616168976 -54.733500480651855 0.3585740039125085 -16.832700222730637 2.4363099597394466 -2.1474022560141748e-09 -7.453877515217755e-09 -1.0372502856625943e-09 -3.7000802421971457e-09 -1.2917666936118621e-08 -1.8135892787540797e-09 -2.1474022560141748e-09 -7.453877515217755e-09 -1.0372502856625943e-09 -7.7309102565050125 5.474880114197731 -0.41731400415301323 -2.1474022560141748e-09 -7.453877515217755e-09 -1.0372502856625943e-09 -2.905540131032467 0.9651830233633518 -0.102901995414868 -2.1474022560141748e-09 -7.453877515217755e-09 -1.0372502856625943e-09 -10.27859978377819 0.7318009994924068 -0.025912300043273717 -2.1474022560141748e-09 -7.453877515217755e-09 -1.0372502856625943e-09 -2.221670038998127 -0.733487019315362 0.2089200052432716 0.0 0.0 0.0 -12.026099860668182 -0.2929020021110773 -3.0004098638892174 -0.7024090178310871 54.948002099990845 1.612789984792471 -13.54850023984909 -12.30169951915741 -28.531700670719147 0.0 0.0 0.0 44.891898930072784 -55.70770025253296 27.794699370861053 1.5223899856209755 62.95910060405731 -0.9612619690597057 0.7454019784927368 4.74898986518383 -2.5879399292171
0.9422000050544739 68.04840087890625 1.8598999381065369 -9.170300289988518 -30.08420079946518 2.6940999180078506 3.4123998507857323 16.45210012793541 12.659099847078323 -1.3060499634593725 -8.366430178284645 3.4210801497101784 -2.8533999994397163 13.94020065665245 1.3469600211828947 6.4287299662828445 -25.82820028066635 4.250959977507591 0.0 0.0 0.0 0.0 0.0 0.0 0.0 0.0 1.2789769243681803e-12 80.73929786682129 39.36010032892227 -22.629800140857697 -28.429800868034363 -35.28370052576065 75.82040011882782 -0.1868960098363459 12.210099399089813 1.7428499646484852 2.0655477328546112e-09 1.4017587091075256e-09 -5.659472890329198e-09 3.512070634315023e-09 2.665387910383288e-09 -9.796963240660261e-09 2.0655477328546112e-09 1.4017587091075256e-09 -5.659472890329198e-09 7.7309102565050125 5.474880114197731 0.41731400415301323 2.0655477328546112e-09 1.4017587091075256e-09 -5.659472890329198e-09 2.905540131032467 0.9651830233633518 0.102901995414868 2.0655477328546112e-09 1.4017587091075256e-09 -5.659472890329198e-09 10.27859978377819 0.7318009994924068 0.025912300043273717 2.0655477328546112e-09 1.4017587091075256e-09 -5.659472890329198e-09 2.221670038998127 -0.733487019315362 -0.2089200052432716 0.0 0.0 1.2789769243681803e-12 -70.72649896144867 38.27050119638443 -1.5615899674594402 25.80489993095398 -22.945498824119568 -55.93709886074066 0.3549769939854741 -16.743900328874588 2.422750052064657 -2.901998641391401e-09 -8.200800039048772e-09 -8.594724931754172e-10 -5.006555170439242e-09 -1.4227339306671638e-08 -1.5168666323006619e-09 -2.901998641391401e-09 -8.200800039048772e-09 -8.594724931754172e-10 -7.7309102565050125 5.474880114197731 -0.41731400415301323 -2.901998641391401e-09 -8.200800039048772e-09 -8.594724931754172e-10 -2.905540131032467 0.9651830233633518 -0.102901995414868 -2.901998641391401e-09 -8.200800039048772e-09 -8.594724931754172e-10 -10.27859978377819 0.7318009994924068 -0.025912300043273717 -2.901998641391401e-09 -8.200800039048772e-09 -8.594724931754172e-10 -2.221670038998127 -0.733487019315362 0.2089200052432716 0.0 0.0 0.0 -11.557999402284622 -2.9250099509954453 -3.8014301285147667 -0.7788529805839062 56.71189785003662 1.7233499698340893 -13.796100318431854 -13.764600455760956 -27.625698745250702 0.0 0.0 0.0 46.809900999069214 -56.09269917011261 30.633699595928192 1.636739932000637 64.29160058498383 -1.1211799643933773 0.6218530191108584 3.542429991066456 -2.6212100498378277
1.311000019311905 68.21399688720703 2.5732999444007874 -9.721899926662445 -30.224799513816833 4.7537001594901085 3.5522200539708138 14.372099339962006 12.861599922180176 -1.146409995853901 -8.04565005004406 3.4954799339175224 -2.856460064649582 13.987199664115906 1.3917099963873625 6.475429907441139 -25.64299911260605 4.347979836165905 0.0 0.0 0.0 0.0 0.0 0.0 0.0 0.0 0.0 81.14869952201843 40.43059945106506 -21.77599936723709 -28.430299758911133 -35.296800434589386 75.84060251712799 -0.18166700145229697 12.05069974064827 1.719330009073019 1.993285536627809e-09 -1.2278178473934531e-09 -3.744844434550032e-09 3.4065550380546483e-09 -1.949160832737107e-09 -6.486970960395411e-09 1.993285536627809e-09 -1.2278178473934531e-09 -3.744844434550032e-09 7.7309102565050125 5.474880114197731 0.41731400415301323 1.993285536627809e-09 -1.2278178473934531e-09 -3.744844434550032e-09 2.905540131032467 0.9651830233633518 0.102901995414868 1.993285536627809e-09 -1.2278178473934531e-09 -3.744844434550032e-09 10.27859978377819 0.7318009994924068 0.025912300043273717 1.993285536627809e-09 -1.2278178473934531e-09 -3.744844434550032e-09 2.221670038998127 -0.733487019315362 -0.2089200052432716 0.0 0.0 0.0 -68.60959768295288 39.77350115776062 -4.180479906499386 26.24660074710846 -24.08640056848526 -57.805198431015015 0.4717550100758672 -19.204100221395493 2.8049200773239136 -9.451639471080853e-10 6.446043698815629e-10 6.983214007050265e-10 -1.6486012555105845e-09 1.0589928933768533e-09 1.1971224012086168e-09 -9.451639471080853e-10 6.446043698815629e-10 6.983214007050265e-10 -7.7309102565050125 5.474880114197731 -0.41731400415301323 -9.451639471080853e-10 6.446043698815629e-10 6.983214007050265e-10 -2.905540131032467 0.9651830233633518 -0.102901995414868 -9.451639471080853e-10 6.446043698815629e-10 6.983214007050265e-10 -10.27859978377819 0.7318009994924068 -0.025912300043273717 -9.451639471080853e-10 6.446043698815629e-10 6.983214007050265e-10 -2.221670038998127 -0.733487019315362 0.2089200052432716 0.0 0.0 0.0 -10.87619997560978 -6.791950017213821 -4.9038998410105705 -0.8706739638000727 58.54370176792145 1.8273700587451458 -13.87629970908165 -14.802300184965134 -26.843400299549103 0.0 0.0 0.0 49.58629846572876 -57.16529846191406 34.26329970359802 1.7070399597287178 65.09240090847015 -1.2303400039672852 0.5440580192953348 2.879209890961647 -2.4927999638020992
1.6114000082015991 68.51490020751953 3.2744999527931213 -9.995099678635597 -30.071599781513214 6.242299675941467 3.469500057399273 13.118200153112411 12.899299710988998 -0.9538119658827782 -7.827479839324951 3.5197901353240013 -2.9117900133132935 13.978300094604492 1.41952995210886 6.485850289463997 -25.708799064159393 4.412290155887604 0.0 0.0 0.0 0.0 0.0 0.0 0.0 0.0 0.0 81.43419921398163 41.60440117120743 -21.190199553966522 -28.43300074338913 -35.44659912586212 76.08329951763153 -0.18436999758705497 12.144999504089355 1.7331599816679955 3.504396772768814e-10 -1.4529177860822529e-09 -2.0719426174764521e-10 6.043165967639652e-10 -2.511910679459106e-09 -3.5939251574745867e-10 3.504396772768814e-10 -1.4529177860822529e-09 -2.0719426174764521e-10 7.7309102565050125 5.474880114197731 0.41731400415301323 3.504396772768814e-10 -1.4529177860822529e-09 -2.0719426174764521e-10 2.905540131032467 0.9651830233633518 0.102901995414868 3.504396772768814e-10 -1.4529177860822529e-09 -2.0719426174764521e-10 10.27859978377819 0.7318009994924068 0.025912300043273717 3.504396772768814e-10 -1.4529177860822529e-09 -2.0719426174764521e-10 2.221670038998127 -0.733487019315362 -0.2089200052432716 0.0 0.0 0.0 -66.56089961528778 40.61760038137436 -6.626190170645714 26.669099628925323 -25.287499129772186 -59.72700119018555 0.5131629947572947 -19.913399666547775 2.9185599088668823 1.105675551116292e-09 6.57905729894992e-09 1.3697842859983211e-09 1.88713045190525e-09 1.1382894626876805e-08 2.38273401009792e-09 1.105675551116292e-09 6.57905729894992e-09 1.3697842859983211e-09 -7.7309102565050125 5.474880114197731 -0.41731400415301323 1.105675551116292e-09 6.57905729894992e-09 1.3697842859983211e-09 -2.905540131032467 0.9651830233633518 -0.102901995414868 1.105675551116292e-09 6.57905729894992e-09 1.3697842859983211e-09 -10.27859978377819 0.7318009994924068 -0.025912300043273717 1.105675551116292e-09 6.57905729894992e-09 1.3697842859983211e-09 -2.221670038998127 -0.733487019315362 0.2089200052432716 0.0 0.0 0.0 -10.54289996623993 -9.72581997513771 -6.308640092611313 -0.9533129911869764 59.943798780441284 1.9047600030899048 -13.870499432086945 -15.815400034189224 -25.99080115556717 0.0 0.0 0.0 50.95830202102661 -57.688801288604736 36.37189954519272 1.7382999323308468 65.47580122947693 -1.2981100380420685 0.4804589878767729 2.172600030899048 -2.3644200526177883
